<svg height="221" viewBox="0 0 416 221" width="416" xmlns="http://www.w3.org/2000/svg"><g fill="none" fill-rule="evenodd" transform="translate(1)"><path d="m58.2363 69.0758h-33.229c-1.074 0-1.657 1.256-.964 2.076l13.413 15.861c.193.228.299.516.299.814v11.403c0 .478.27.914.697 1.128l5.21 2.605c.839.42 1.826-.19 1.826-1.128v-14.008c0-.298.105-.586.298-.814l13.413-15.861c.693-.82.111-2.076-.963-2.076" fill="#ffa726"/><path d="m93.4844 9.3121.031-8.313m4.1409 4.1724-8.313-.031m-10.1294.6276c0 .338-.274.612-.612.612s-.612-.274-.612-.612.274-.612.612-.612.612.274.612.612zm10.4497 15.9009c0 .738-.599 1.337-1.337 1.337s-1.337-.599-1.337-1.337.599-1.337 1.337-1.337 1.337.599 1.337 1.337zm251.3364-19.2075c0 .598-.485 1.083-1.083 1.083-.599 0-1.084-.485-1.084-1.083 0-.599.485-1.083 1.084-1.083.598 0 1.083.484 1.083 1.083zm-341 201.9165h413.577m-250.5116 15h208.512m-274.3279 0h44.328m-77.5775 0h15.25" stroke="#676767" stroke-linecap="round" stroke-width="2"/><path d="m209.9639 50.0445c-91.427 0-167.155 66.958-180.461 154.333l360.894-.191c-13.388-87.281-89.072-154.142-180.433-154.142" fill="#000" opacity=".1"/><path d="m338.1318 204.3848c3.993 0 6.311-4.441 6.236-8.111-.05-2.516-1.599-4.669-3.01-4.781h-260.846c-1.41.112-2.959 2.265-3.01 4.781-.074 3.67 2.243 8.111 6.236 8.111z" fill="#cecece"/><path d="m338.1318 204.3848c3.993 0 6.311-4.441 6.236-8.111-.05-2.516-1.599-4.669-3.01-4.781h-260.846c-1.41.112-2.959 2.265-3.01 4.781-.074 3.67 2.243 8.111 6.236 8.111z" stroke="#7a7a7a" stroke-width="2"/><path d="m338.1318 204.3848c3.993 0 6.311-4.441 6.236-8.111-.05-2.516-1.599-4.669-3.01-4.781h-260.846c-1.41.112-2.959 2.265-3.01 4.781-.074 3.67 2.243 8.111 6.236 8.111zm6.2364-7.2519h-76.554m-190.3122 0h76.34" stroke="#7a7a7a" stroke-width="2"/><path d="m226.4727 191.3585c0 2.704-2.214 4.056-4.919 4.056h-21.773c-2.705 0-4.919-1.352-4.919-4.056" stroke="#7a7a7a" stroke-width="2"/><path d="m319.3633 42.5411h-217.608c-2.379 0-4.309 1.927-4.309 4.305v144.512l226.227.135-.001-144.647c0-2.378-1.929-4.305-4.309-4.305" fill="#cecece"/><path d="m319.3633 42.5411h-217.608c-2.379 0-4.309 1.927-4.309 4.305v144.512l226.227.135-.001-144.647c0-2.378-1.929-4.305-4.309-4.305z" stroke="#7a7a7a" stroke-width="2"/><path d="m109.6416 52.9156c-1.126 0-2.039.912-2.039 2.038v125.16c0 1.125.913 2.037 2.039 2.037h202.682c1.127 0 2.039-.912 2.039-2.037v-125.16c0-1.126-.912-2.038-2.039-2.038z" fill="#fff"/><path d="m109.6416 52.9156c-1.126 0-2.039.912-2.039 2.038v125.16c0 1.125.913 2.037 2.039 2.037h202.682c1.127 0 2.039-.912 2.039-2.037v-125.16c0-1.126-.912-2.038-2.039-2.038z" stroke="#7a7a7a" stroke-width="2"/><path d="m119.312 49.1319c.792 0 1.435-.642 1.435-1.435 0-.792-.643-1.434-1.435-1.434h-3.029c-.792 0-1.435.642-1.435 1.434 0 .793.643 1.435 1.435 1.435z" fill="#f3f3f3"/><path d="m150.5586 49.1319c.792 0 1.435-.642 1.435-1.435 0-.792-.643-1.434-1.435-1.434h-25.986c-.792 0-1.434.642-1.434 1.434 0 .793.642 1.435 1.434 1.435z" fill="#fff"/><path d="m261.4609 96.004h-5.803c0 3.093-2.507 5.6-5.599 5.6-3.093 0-5.6-2.507-5.6-5.6h-79.084c-1.744 0-3.158 1.413-3.158 3.157v23.032c0 1.744 1.414 3.157 3.158 3.157h79.124c-.01-.135-.04-.263-.04-.4 0-3.092 2.507-5.6 5.6-5.6 3.092 0 5.599 2.508 5.599 5.6 0 .137-.03.265-.04.4h5.843c1.743 0 3.157-1.413 3.157-3.157v-23.032c0-1.744-1.414-3.157-3.157-3.157" fill="#f2f6f9"/><path d="m261.4609 96.004h-5.803c0 3.093-2.507 5.6-5.599 5.6-3.093 0-5.6-2.507-5.6-5.6h-79.084c-1.744 0-3.158 1.413-3.158 3.157v23.032c0 1.744 1.414 3.157 3.158 3.157h79.124c-.01-.135-.04-.263-.04-.4 0-3.092 2.507-5.6 5.6-5.6 3.092 0 5.599 2.508 5.599 5.6 0 .137-.03.265-.04.4h5.843c1.743 0 3.157-1.413 3.157-3.157v-23.032c0-1.744-1.414-3.157-3.157-3.157zm-89.25 10.0796h17.613m-17.613 8.27h18.148" stroke="#7a7a7a" stroke-linecap="round" stroke-width="2"/><g opacity=".7" transform="translate(190 90.378)"><path d="m43.3242 21.522c0 11.799-9.565 21.365-21.364 21.365-11.8 0-21.365-9.566-21.365-21.365 0-11.8 9.565-21.365 21.365-21.365 11.799 0 21.364 9.565 21.364 21.365" fill="#ff8200"/><path d="m43.3242 21.522c0 11.799-9.565 21.365-21.364 21.365-11.8 0-21.365-9.566-21.365-21.365 0-11.8 9.565-21.365 21.365-21.365 11.799 0 21.364 9.565 21.364 21.365z" stroke="#676767" stroke-width="2"/></g><path d="m212.0117 133.2779c-11.8 0-21.365-9.565-21.365-21.365s9.565-21.365 21.365-21.365 21.365 9.565 21.365 21.365-9.565 21.365-21.365 21.365m0-49.507c-15.542 0-28.142 12.599-28.142 28.142 0 15.542 12.6 28.142 28.142 28.142s28.142-12.6 28.142-28.142c0-15.543-12.6-28.142-28.142-28.142" fill="#fff"/><path d="m212.0117 133.2779c-11.8 0-21.365-9.565-21.365-21.365s9.565-21.365 21.365-21.365 21.365 9.565 21.365 21.365-9.565 21.365-21.365 21.365zm0-49.507c-15.542 0-28.142 12.599-28.142 28.142 0 15.542 12.6 28.142 28.142 28.142s28.142-12.6 28.142-28.142c0-15.543-12.6-28.142-28.142-28.142z" stroke="#7a7a7a" stroke-linecap="round" stroke-width="2"/><path d="m261.3848 151.4932c3.162 3.163 3.162 8.29 0 11.452-3.163 3.163-8.29 3.163-11.452 0l-17.566-19.518 8.854-8.854z" fill="#b39ddb"/><g stroke="#7a7a7a" stroke-width="2"><path d="m261.3848 151.4932c3.162 3.163 3.162 8.29 0 11.452-3.163 3.163-8.29 3.163-11.452 0l-17.566-19.518 8.854-8.854z" stroke-linecap="round"/><path d="m239.003 136.791-3.543 3.543-6.094-6.094 3.543-3.542z" stroke-linecap="round"/><path d="m249.9326 162.9454 11.452-11.452"/><path d="m250.7998 107.023c0 .519-.421.94-.94.94s-.94-.421-.94-.94.421-.939.94-.939.94.42.94.939zm0 6.3906c0 .519-.421.94-.94.94s-.94-.421-.94-.94.421-.939.94-.939.94.42.94.939z" stroke-dasharray="8" stroke-linecap="round"/></g><path d="m204.5557 75.9312c0 1.38-1.119 2.499-2.498 2.499-1.38 0-2.499-1.119-2.499-2.499s1.119-2.498 2.499-2.498c1.379 0 2.498 1.118 2.498 2.498" fill="#ffa500"/><path d="m211.8232 75.9312c0 1.38-1.118 2.499-2.498 2.499s-2.498-1.119-2.498-2.499 1.118-2.498 2.498-2.498 2.498 1.118 2.498 2.498" fill="#ff8200"/><path d="m219.0918 75.9312c0 1.38-1.119 2.499-2.499 2.499s-2.498-1.119-2.498-2.499 1.118-2.498 2.498-2.498 2.499 1.118 2.499 2.498m7.2676 0c0 1.38-1.118 2.499-2.498 2.499s-2.499-1.119-2.499-2.499 1.119-2.498 2.499-2.498 2.498 1.118 2.498 2.498" fill="#ffa500"/><path d="m143.7817 99.7945h18.436m-12.7504 7.2285h11.889m-27.2235 6.7276h27.223m-13.6112 6.892h13.611m100.0292 30.8506h20.836m-17.6026 6.9121h9.978m-18.4907 6.9122h31.395" stroke="#7a7a7a" stroke-linecap="round" stroke-width="2"/><path d="m202.2983 117.5924 5.745-5.71-5.745-5.709c-1.079-1.08-1.079-2.855 0-3.935 1.08-1.079 2.855-1.079 3.934 0l5.744 5.71 5.71-5.71c1.079-1.079 2.855-1.079 3.935 0 1.079 1.08 1.079 2.855 0 3.935l-5.71 5.709 5.71 5.71c1.079 1.079 1.079 2.854 0 3.934-1.08 1.079-2.856 1.079-3.935 0l-5.71-5.71-5.709 5.745c-1.079 1.079-2.855 1.079-3.934 0-1.114-1.115-1.114-2.855-.035-3.969" fill="#fff"/><path d="m202.2983 117.5924 5.745-5.71-5.745-5.709c-1.079-1.08-1.079-2.855 0-3.935 1.08-1.079 2.855-1.079 3.934 0l5.744 5.71 5.71-5.71c1.079-1.079 2.855-1.079 3.935 0 1.079 1.08 1.079 2.855 0 3.935l-5.71 5.709 5.71 5.71c1.079 1.079 1.079 2.854 0 3.934-1.08 1.079-2.856 1.079-3.935 0l-5.71-5.71-5.709 5.745c-1.079 1.079-2.855 1.079-3.934 0-1.114-1.115-1.114-2.855-.035-3.969z" stroke="#676767" stroke-width="2"/><g transform="translate(78 197.378)"><path d="m.502.5615c-.074 3.262 1.243 6.445 5.236 6.445h254.394c3.993 0 5.31-3.183 5.236-6.445" fill="#a8a8a8"/><path d="m.502.5615c-.074 3.262 1.243 6.445 5.236 6.445h254.394c3.993 0 5.31-3.183 5.236-6.445" stroke="#7a7a7a" stroke-linecap="round" stroke-width="2"/></g><path d="m379.7432 53.4346c17.1 0 30.962 13.862 30.962 30.962 0 17.101-13.862 30.963-30.962 30.963-17.101 0-30.963-13.862-30.963-30.963 0-17.1 13.862-30.962 30.963-30.962z" stroke="#676767" stroke-dasharray="4.052 4.052" stroke-linecap="round" stroke-width="2"/><path d="m395.9766 84.5411h-32.467v20.082c0 1.068.872 1.93 1.94 1.918l28.458-.263c1.146-.01 2.069-.943 2.069-2.089z" fill="#fff"/><path d="m395.9766 84.5411h-32.467v20.082c0 1.068.872 1.93 1.94 1.918l28.458-.263c1.146-.01 2.069-.943 2.069-2.089z" stroke="#646464"/><path d="m398.0918 79.9639h-36.697v22.698c0 1.207.985 2.182 2.192 2.168l32.166-.297c1.295-.011 2.339-1.065 2.339-2.361z" fill="#fff"/><path d="m398.0918 79.9639h-36.697v22.698c0 1.207.985 2.182 2.192 2.168l32.166-.297c1.295-.011 2.339-1.065 2.339-2.361z" stroke="#646464"/><g transform="translate(359 75.378)"><path d="m40.6777 20.6226v-20.255h-39.869v24.66c0 1.312 1.07 2.37 2.382 2.356l31.2-.346" fill="#fff"/><path d="m40.6777 20.6226v-20.255h-39.869v24.66c0 1.312 1.07 2.37 2.382 2.356l31.2-.346" stroke="#646464"/></g><path d="m401.25 73.2784v-4.605c0-1.303-1.057-2.36-2.359-2.36l-38.295.001c-1.303 0-2.36 1.056-2.36 2.359v5.008c0 1.313 1.072 2.373 2.385 2.359l38.294-.403c1.293-.013 2.335-1.066 2.335-2.359" fill="#ffa726"/><path d="m401.25 73.2784v-4.605c0-1.303-1.057-2.36-2.359-2.36l-38.295.001c-1.303 0-2.36 1.056-2.36 2.359v5.008c0 1.313 1.072 2.373 2.385 2.359l38.294-.403c1.293-.013 2.335-1.066 2.335-2.359z" stroke="#646464" stroke-linecap="round" stroke-linejoin="round"/><path d="m366.5361 70.1129h-.066c-.85 0-1.538-.689-1.538-1.539v-4.782c0-.85.688-1.539 1.538-1.539h.066c.851 0 1.539.689 1.539 1.539v4.782c0 .85-.688 1.539-1.539 1.539" fill="#fff"/><path d="m366.5361 70.1129h-.066c-.85 0-1.538-.689-1.538-1.539v-4.782c0-.85.688-1.539 1.538-1.539h.066c.851 0 1.539.689 1.539 1.539v4.782c0 .85-.688 1.539-1.539 1.539z" stroke="#646464"/><path d="m392.4736 70.1129h-.067c-.85 0-1.538-.689-1.538-1.539v-4.782c0-.85.688-1.539 1.538-1.539h.067c.85 0 1.538.689 1.538 1.539v4.782c0 .85-.688 1.539-1.538 1.539" fill="#fff"/><path d="m392.4736 70.1129h-.067c-.85 0-1.538-.689-1.538-1.539v-4.782c0-.85.688-1.539 1.538-1.539h.067c.85 0 1.538.689 1.538 1.539v4.782c0 .85-.688 1.539-1.538 1.539zm-24.4736 16.9282c-2.209 0-4-1.791-4-4s1.791-4 4-4 4 1.791 4 4-1.791 4-4 4zm0 12c-2.209 0-4-1.791-4-4s1.791-4 4-4 4 1.791 4 4-1.791 4-4 4zm12 0c-2.209 0-4-1.791-4-4s1.791-4 4-4 4 1.791 4 4-1.791 4-4 4zm12 0c-2.209 0-4-1.791-4-4s1.791-4 4-4 4 1.791 4 4-1.791 4-4 4z" stroke="#646464"/><path d="m380 87.0411c-2.209 0-4-1.791-4-4s1.791-4 4-4 4 1.791 4 4-1.791 4-4 4" fill="#ffa726"/><path d="m380 87.0411c-2.209 0-4-1.791-4-4s1.791-4 4-4 4 1.791 4 4-1.791 4-4 4z" stroke="#646464" stroke-linecap="round" stroke-linejoin="round"/><path d="m392 87.0411c-2.209 0-4-1.791-4-4s1.791-4 4-4 4 1.791 4 4-1.791 4-4 4z" stroke="#646464"/><path d="m393.3896 102.4146v-4.005c0-1.304 1.058-2.36 2.36-2.36h3.928z" fill="#fff"/><path d="m393.3896 102.4146v-4.005c0-1.304 1.058-2.36 2.36-2.36h3.928z" stroke="#646464" stroke-linecap="round" stroke-linejoin="round"/><path d="m58.2363 69.0758h-33.229c-1.074 0-1.657 1.256-.964 2.076l13.413 15.861c.193.228.299.516.299.814v11.403c0 .478.27.914.697 1.128l5.21 2.605c.839.42 1.826-.19 1.826-1.128v-14.008c0-.298.105-.586.298-.814l13.413-15.861c.693-.82.111-2.076-.963-2.076z" stroke="#646464"/><path d="m41.6216 53.5064c17.1 0 30.962 13.863 30.962 30.963s-13.862 30.962-30.962 30.962-30.962-13.862-30.962-30.962 13.862-30.963 30.962-30.963z" stroke="#676767" stroke-dasharray="4.052 4.052" stroke-linecap="round" stroke-width="2"/><path d="m27.7607 74.8472h15.264m3.052 0h8.141m-11.1933 13.2281v9.158" stroke="#646464" stroke-linecap="round" stroke-linejoin="round"/></g></svg>