<svg xmlns="http://www.w3.org/2000/svg" width="72" height="72" viewBox="0 0 72 72">
  <g fill="none" fill-rule="evenodd" transform="translate(0 .3)">
    <rect width="70.142" height="70.142" x=".653" y=".62" stroke="#979797" rx="8"/>
    <g transform="translate(2.959 10.394)">
      <polygon fill="#FEFEFE" points="10.006 11.935 10.006 25.302 11.916 25.302 11.916 31.031 10.006 31.031 10.006 42.488 52.375 42.488 52.375 11.935"/>
      <g transform="translate(.726 .833)">
        <path fill="#020303" d="M0,31.8887809 C0,31.8887809 7.86942925,23.781337 8.34660826,11.2619995 L26.4690622,11.2619995 C26.4690622,11.2619995 27.303838,30.9942139 14.5464859,34.7507051 C14.5464859,34.7507051 17.3474692,32.425751 15.3801119,26.0465 C15.3801119,26.0465 15.0742574,34.1102504 5.36510183,36.4191069 C5.36510183,36.4191069 10.1943834,31.3518107 10.3726069,27.1192904 C10.3726069,27.1192904 6.97486234,31.8289898 0,31.8887809"/>
        <path fill="#020303" d="M51.3283638,10.4274537 L51.3283638,40.1160369 L10.0748012,40.1160369 L10.0748012,31.8890108 L9.29981645,31.8890108 L9.29981645,46.0767501 C9.29981645,47.6508659 10.5876249,48.9386743 12.1617407,48.9386743 L49.2414243,48.9386743 C50.8155401,48.9386743 52.1033485,47.6508659 52.1033485,46.0767501 L52.1033485,10.4274537 L51.3283638,10.4274537 Z"/>
        <path fill="#F7A71B" d="M52.1033485,11.2619995 L52.1033485,4.22734609 C52.1033485,2.39106928 50.6005221,0.889392684 48.7653951,0.889392684 L11.6845617,0.889392684 C9.84828486,0.889392684 8.34660826,2.39106928 8.34660826,4.22734609 L8.34660826,11.2619995 L52.1033485,11.2619995 Z"/>
        <path fill="#020303" d="M52.1284148,40.1665144 L52.1284148,46.0777849 C52.1284148,46.1824194 52.1215158,46.2847541 52.1111673,46.3859391 C60.8912611,46.6136052 63.7129413,39.9101025 63.7129413,39.9101025 C59.3780862,38.1554636 55.0834751,39.039682 52.1284148,40.1665144"/>
        <path fill="#F7A71B" d="M52.1033485,41.0132484 L52.1033485,46.171381 C52.1033485,46.5450754 52.0286096,46.9003726 51.8975291,47.2280738 C57.9122843,51.5617791 63.9258896,48.1985294 63.9258896,48.1985294 C61.557242,42.8955184 55.0687573,41.4915772 52.1033485,41.0132484"/>
        <path fill="#020303" d="M34.9160505 21.7762653C35.3414872 23.7447725 37.0915268 25.220003 39.1865152 25.220003 41.6011559 25.220003 43.5581648 23.2629941 43.5581648 20.8483534 43.5581648 20.5608961 43.5294191 20.2814877 43.4765269 20.0089782L34.9160505 21.7762653zM36.2060436 19.4491265L43.8765524 17.8589131C43.8765524 17.8589131 45.2678454 17.4622221 46.4993122 18.2969979 46.4993122 18.2969979 46.1417154 19.0121915 45.3069396 19.2111119L34.6158302 21.2371105 34.139801 21.2371105 33.9006366 20.5219169 34.3778156 20.4828227 34.3375715 19.7871762 33.4142589 18.505117 33.2199378 17.7646271 33.7419602 17.6553934 36.2060436 19.4491265zM33.2551226 35.2273092L25.7536386 35.2273092 25.7536386 34.2729512 33.1826834 34.2729512C33.4885379 34.2235085 35.9181264 33.7888732 37.9717209 32.4435733L38.4948931 33.2415546C36.1285451 34.791524 33.4046003 35.2054624 33.2896175 35.2227099L33.2551226 35.2273092z"/>
      </g>
    </g>
  </g>
</svg>
