<svg id="Layer_1" data-name="Layer 1" xmlns="http://www.w3.org/2000/svg" viewBox="0 0 800 800"><defs><style>.cls-1{fill:#00447d;}</style></defs><title>EP</title><path class="cls-1" d="M488.83,175.85c-44.3,7.25-73.07,14.17-85,20.28-5.32,2.72-30,30.59-73.07,82.14-8,9.63-19.26,23-24.92,29.57s-29.57,35.34-53.25,63.89-53.47,64.46-66.27,79.76-37.5,45-54.95,65.93c-57.78,69.22-61.17,72.73-82.7,87.12-5,3.29-10.31,6.91-11.9,7.93-4.87,3.29-14.95,8.16-19.71,9.52-2.49.68-4.64,1.81-4.87,2.49-.34.91,5.67,1.25,19.71,1.13,11.11-.11,95.62,0,187.84.23l167.67.34.79-10.54c.79-10.87,5.21-37.49,8.84-53.58,1.13-5,3.39-15.18,5.09-22.66,4.42-19.26,12.81-52.45,21-82.13,3.85-14,7.48-27.08,7.93-28.89s2.49-9.07,4.53-15.86,4.54-15.75,5.67-19.83c2.6-9.52,12-41.58,14.73-50.41,1.13-3.74,3.39-11.11,5-16.43,7.25-24,26.28-85.87,30.7-99.7,2.72-8.38,7.25-22.65,10.2-31.72s5.66-17.22,6.23-18.24c1-2,.34-3.39-1.59-3.17C505.82,173.13,497.89,174.38,488.83,175.85ZM271.31,488.42v9.63l-30.24.23-30.37.34v23.79L239,523l28.32.57v18.13l-28.66.34-28.67.22.34,15.07.34,15,31.5.34,31.49.23-.34,9.4-.34,9.29h-85l-.34-54.94c-.12-30.25,0-55.63.34-56.42.34-1,9.85-1.36,41.91-1.36h41.35Zm88.94-7c5.66,2.6,12.46,9.06,15.63,15,2.83,5.55,4,20.73,2,28.55-2.49,9.86-10.2,18-20.51,21.86-2.26.8-12.12,1.7-22.65,2.16l-18.7.68L316,570.55l-.11,21H293.41l-.34-56.41-.23-56.54,31.38.46C351.18,479.36,356.39,479.7,360.25,481.4Z"/><path class="cls-1" d="M316.06,499.41c-.34.91-.45,7.93-.34,15.75l.34,14,11.67.34c17.79.46,25-2.49,27.42-11.21,1.81-6.57-.23-12.69-5.33-16.54-4-3.06-4.75-3.17-18.69-3.63C319.46,497.94,316.52,498.16,316.06,499.41Z"/><path class="cls-1" d="M659.9,184.12c-4.65,4.76-18.81,17.22-31.38,27.65-24.93,20.62-27.65,23.9-31.84,37.84-1.92,6.11-2.49,11-2.49,20.39,0,14.5-1.25,17.78-6.46,18.24-2.6.22-4.76,1.7-7.7,5-3.74,4.42-4.08,4.53-6,2.83-3-2.83-7.36-2.37-10.53,1-6,6.57-13.94,7.14-17,1.36-1.69-3.06-.68-22.77,1.82-33.76.79-4.08,1.13-7.81.56-8.27-1.13-1.24-1.47-.56-3.73,6.57-2.61,8-5.33,27.31-5.33,38.07,0,8.61.23,9.29,3.29,12.46,5.32,5.21,8.72,4.19,17.1-5,3.4-3.74,5.67-5.33,7.25-5.1,2.16.34,2.38,1.13,2.38,7.48,0,3.85.46,6.91,1,6.68S573,314,574.59,310c3.29-8.84,7.48-13.6,11.9-13.6,2.37,0,4-1.13,6.57-4.75,4.3-5.9,5.32-10,6.23-24.13.34-6.24.9-14.85,1.24-19l.68-7.7,11-8.61c27.53-21.87,32.86-26.28,40.79-33.76,9.74-9.18,20-23.79,16.31-23.11C668.73,175.4,664.54,179.37,659.9,184.12Z"/><path class="cls-1" d="M751.78,198.51c-2.95,5-2.95,5.1.56,8.5l2.95,2.72,2.15-2.72c2.72-3.29,2.72-8.27.11-10.65C754.72,193.75,754.49,193.87,751.78,198.51Z"/><path class="cls-1" d="M764.35,220.38C745.77,231.48,731,244.51,733.2,248c.34.57,3.17.68,6.68.23,5-.57,6.12-.46,6.12.9,0,.91-1.25,2-2.72,2.38s-4.19,2.49-5.89,4.65-4.87,5.66-6.69,7.7a86.14,86.14,0,0,0-7.25,9.63c-3.85,6-7,7.82-11.21,6.57-3.85-1.25-5.33,2.27-6,15.07-.9,16.88-5,24.69-16,30.25-7,3.62-17.67,3.73-23,.45-7.25-4.42-7.82-12.58-2.15-26.74,1.58-4.08,2.6-7.7,2.26-8.15-1.24-1.14-2.71,1.24-6.34,10.42-4.19,10.31-5.66,23.79-3.51,30.36,4.08,12.46,20.16,14.84,33.19,4.87,10.2-7.7,18.24-23.56,19.94-39.31.79-6.8.91-7.14,4-7.48,2.38-.34,4.07-1.81,7-6.34,5.1-8,6.34-8.84,12.58-8.38,4.64.34,5.55,0,7.59-2.84l2.37-3.06-4-4.07-3.85-4,2.83-2.38a63.25,63.25,0,0,1,7.93-4.87c6.23-3.17,9.4-6.46,8.84-9.29-.34-1.7-1.48-2-8.05-1.81-4.19,0-7.59-.34-7.59-.8,0-1.24,5-4.19,18.81-11.21,8.72-4.31,12.23-6.8,14.5-10.08C779,212.9,777,212.9,764.35,220.38Z"/><path class="cls-1" d="M641.88,230.91l-2.37,4.87,2.37,1.93c3.52,2.95,4.88,2.49,7.37-1.93,2-3.85,2-3.85-.68-6.79-1.47-1.59-3.06-2.84-3.51-2.84S643.24,228.31,641.88,230.91Z"/><path class="cls-1" d="M648.23,241.11l-2.15,3.74-2.27-3.17c-1.25-1.7-2.72-3.06-3.29-3.06s-2,2.15-3.39,4.75l-2.38,4.76,2.49,2c3.28,2.61,5.32,2.61,6.8-.22s2.94-2.84,5.43-.46c1.7,1.7,2,1.59,4.42-1.13,3.18-3.74,3.29-6.46.57-9C651.51,236.69,650.61,237,648.23,241.11Z"/><path class="cls-1" d="M579.91,251.87c-1.13,1.7-2.15,3.4-2.37,3.63s-1.59-.68-3.06-2l-2.72-2.61-3.17,4.76-3.18,4.76,3.06,2.72c4,3.4,4.65,3.4,7-.23,1.7-2.72,2-2.72,3.85-1.13,2.83,2.6,4.42,2.26,6.34-1.59,2.38-4.53,2.16-6-1-8.95l-2.72-2.6Z"/><path class="cls-1" d="M530.41,254.59C518.51,262.41,507,279.51,507,289c0,5.21,1,6.46,6.23,8.16,4.76,1.47,4.76,4.64.11,10.76-6.68,8.72-17.9,12.23-27.08,8.5-5.32-2.27-6.91-4.76-6.79-10.77s2.26-13,7.81-25c5.22-11.33,3.29-13.48-2.26-2.61-13,25.83-14.5,46.34-4,51.77,4.87,2.61,15.52,2.16,21.41-.9,9.07-4.53,17.22-18.35,19.26-32.74,1.25-8.61.57-10.77-4.64-13.48-2.49-1.25-4.42-2.5-4.42-2.84a19.84,19.84,0,0,1,3.17-4.64c4.19-5.67,11.22-10.54,15.07-10.54,2.61,0,3.63-.9,5.55-4.53,2.61-5.1,3-9.06.79-9.06C536.3,251.08,533.24,252.66,530.41,254.59Z"/><path class="cls-1" d="M773.75,258.1c-2,6.12-4,16.43-4,21.41,0,5.44-.57,9.52-3.06,23.57-1.13,6.46,1.93,3.62,5-4.42,2.38-6.57,4.31-22.32,4.88-40C776.59,256.4,774.55,256.06,773.75,258.1Z"/><path class="cls-1" d="M662.39,262.41a4.94,4.94,0,0,1-3.63,2.26c-1.24,0-4.41,2.72-7.47,6.23-5,5.78-5.78,6.23-10.31,6.23-10.54,0-20.73,8.27-33,26.74-7.93,12-11.44,15.64-22.54,23.91-7.37,5.43-10,8.27-7.48,8.27,1.92,0,16.43-9.52,21.64-14.28,3.28-2.83,9.06-9.74,12.8-15.29,8.72-12.69,11.67-14.84,21.3-15.64l7.36-.68,6.35-8.38c3.73-5,7.81-9.06,10.19-10.2,3.51-1.58,9.06-8,9.06-10.42C666.69,259.23,663.86,260.14,662.39,262.41Z"/><path class="cls-1" d="M682,287.67c-1.59,2.72-2.83,5.67-2.83,6.68,0,1.59,5.66,7.71,7.13,7.71s5.33-7.37,5.33-10.31-3.85-8.95-5.67-8.95C685.39,282.8,683.57,285.07,682,287.67Z"/><path class="cls-1" d="M741.47,289.6c-3,5.66-2.84,6.11.79,8.49,2.94,1.93,3.06,1.93,5.1-.56,2.6-3.29,2.6-8.16,0-10.54C744.41,284.27,744.07,284.5,741.47,289.6Z"/><path class="cls-1" d="M648.23,348.17c-.23.45-1.13,3.62-2,6.79-1.25,5.33-1.25,6.46.45,10,2.83,5.9,2.38,9.52-2,19.72-5.77,13.14-6,15.06-1.92,18.35a42.91,42.91,0,0,0,5.32,3.85c4.19,2.49-1.47,10.88-10.08,14.84-11.9,5.55-24.13,2.72-26.85-6.23-1.47-5.1-.34-10,6.46-25.38,6.57-14.95,4.19-16.88-2.61-2-11.1,24.13-12.23,37.38-3.85,46.78,2.72,3.06,4.08,3.63,10.08,4.08,5.55.34,7.93,0,12.12-2,9.86-4.76,19.26-20.5,20.62-34.32.68-7.37.57-7.48-3.06-10.88l-3.73-3.4,3.73-9.4c4.65-11.78,5.56-21.3,2.61-26.85C651.4,348.05,649.25,346.47,648.23,348.17Z"/><path class="cls-1" d="M675.42,359.5c-2,6-4.87,22.54-5.89,35.46-.68,7.47-.46,9.06,1.92,13.59,2.16,4.31,3.18,5.1,6.46,5.44,4.31.45,7.7-2.15,12.24-9.29,2.71-4.31,2.83-4.31,8.27-3.63,4.87.68,5.66.46,7.25-1.81,2.38-3.28,2.26-5.44-.46-8.84-2.83-3.62-2.83-5.32,0-6.79a4.3,4.3,0,0,1,4.65,0c3.06,1.7,6.46-.57,9.85-6.57,2.84-5.1,1.59-7.82-1.47-3.18-1.58,2.27-2.49,2.72-5.66,2.16-5.1-.8-10,2.72-13.48,9.63-3.29,6.34-10.31,13.36-14.28,14.38a6.64,6.64,0,0,1-5.89-1.58c-4.19-3.29-4.64-9.63-2-27.53,2.61-17.33,2.49-16.77,1.36-16.77C677.8,354.17,676.44,356.55,675.42,359.5Z"/><path class="cls-1" d="M735.46,356.1c-2,3.4-5.32,19.26-5.32,25.94a96.06,96.06,0,0,1-1.59,15.18c-2.94,13.48,1.36,10.42,5.55-4C737.27,382.27,738.41,351.11,735.46,356.1Z"/><path class="cls-1" d="M541.62,357.68a123.07,123.07,0,0,0-4.53,26.51,104.58,104.58,0,0,1-2.38,16.43c-1.7,6.46-.68,10.08,1.7,5.66,4.08-7.7,5.89-16,6.8-31.72.57-9.74.57-16.88,0-17.44S542,356.66,541.62,357.68Z"/><path class="cls-1" d="M590.9,364.25a56.16,56.16,0,0,0-2.38,13.94c0,5.66-1,13.82-2.83,24.13-.79,4.08-.68,4.3.91,2.83,4.08-4,6.68-13.82,7.7-29.45,1.25-19.83,1.14-19.26,0-19.26C593.74,356.44,592.26,360,590.9,364.25Z"/><path class="cls-1" d="M522.59,367.43c-1.47,3.4-2.83,9.63-3.4,16.65-1.13,12-1.7,13.59-6.8,20.17S499.93,414.56,490.53,415c-6.57.45-8.61.11-11.67-1.81-7.25-4.65-7.59-13.15-.91-27.76,4.08-8.84,4.42-10.76,1.7-9.18-2.26,1.48-9.74,18.81-11.21,26.06-1.59,7.82-.91,16.65,1.7,20.62,2.26,3.4,10,7,14.84,7.14,7.82,0,15.41-3.63,22.66-10.77,10.76-10.65,14.61-20.05,17.33-42.14.68-5.1,1.47-10.54,1.93-12.12C528.14,360,525.08,361.76,522.59,367.43Z"/><path class="cls-1" d="M780,368.33c-1,1.25-2.49,1.59-5.09,1-4.2-.79-5.44.46-9.63,9.07-3.18,6.45-5,7.13-7.14,2.94-2.15-4.42-7.36-3.85-10.65,1-5.21,7.7-4.64,12.8,1.47,13.48a10.22,10.22,0,0,1,4.19,1.25c1.36,1.36-8.72,9.85-15.86,13.25-9.29,4.53-6,6,4.65,2.16,7.59-2.72,9.06-3.74,11.78-8.16,1.7-2.72,4.53-6.8,6.35-9.18a83.53,83.53,0,0,0,5.77-9.4c3.63-6.91,5.44-8.38,8.61-6.68,3.63,2,7.37-.12,9-5.1,1.14-3.51,1.14-4.53-.22-5.89S781.34,366.75,780,368.33Z"/><path class="cls-1" d="M575.61,374c-1,1.58-4.53,4.53-7.59,6.45-4.87,2.95-6.34,4.76-9.86,12.13-4,8.15-4.75,8.95-13.48,14.84-5.1,3.28-8.95,6.57-8.61,7.14.91,1.47,9.86.11,14-2.16,2.49-1.24,4.53-4.08,7.36-10.08,4.31-8.95,6.12-11.1,12-13.93,4.19-2.16,11.1-14.28,9.07-16.32C578,371.5,576.86,372.18,575.61,374Z"/><path class="cls-1" d="M497.1,378.19c-.57.79-2.38,3.74-3.85,6.34l-2.72,5,4,3.28c2.16,1.7,4.31,3.29,4.76,3.29,1.25,0,5.44-8.61,5.44-11.1,0-1.14-1.47-3.52-3.17-5.21C498.91,377.4,498,377.06,497.1,378.19Z"/><path class="cls-1" d="M769.9,395.41c-3.62,5.78-6.46,18.35-4.64,20.5,2,2.5,4.41,2,5.89-1.13,1-2.26.9-3.17-.57-4.87-2.6-2.83-2.38-5.66.91-12.24,3.28-6.34,3.17-6.11,1.81-6.11C772.73,391.56,771.15,393.26,769.9,395.41Z"/><path class="cls-1" d="M575.27,405.38a16,16,0,0,0-1.81,3.4c-.91,2.72-2.72,2.6-4.19-.23-1.82-3.28-3.06-2.83-6.35,2.38L560,415.57l2.6,2.72c3.29,3.52,4.87,3.4,7.25-.22,1.7-2.72,2-2.72,3.85-1.14,2.84,2.61,4.42,2.27,6.35-1.58,2.26-4.42,2.15-6-.91-9C577,404.47,576.18,404.25,575.27,405.38Z"/><path class="cls-1" d="M723,418.75c-1.59,4.19-2.49,4.19-5.78.34l-2.72-3.18-2.6,5.33c-2.5,5.21-2.5,5.44-.46,7.7,1.14,1.25,2.84,2.27,3.74,2.27,1.14,0,1.36.79.91,2.6-.45,2,.11,3.4,2.26,5.44L721.3,442l2.15-2.72a11.27,11.27,0,0,0,2.16-5.89,9,9,0,0,1,2.26-5.55c2.83-2.83,3-8.16.23-10.54C725.15,414.67,724.47,414.89,723,418.75Z"/><path class="cls-1" d="M693.77,426.56c-1.47,4.08-2.72,4.42-4.42,1.25-1.92-3.51-4.3-2.72-6.91,2.49l-2.38,4.76,2.5,2c3.28,2.72,5.77,2.61,6.45-.23s3-2.94,4.87-.56c2.27,2.83,4.54,1.92,6.35-2.5,1.58-3.73,1.58-4.3-.34-6.91C696.72,422.71,695.13,422.6,693.77,426.56Z"/><path class="cls-1" d="M658.42,427.7c-1.47,4.08-3,4.41-5.09,1.24s-3.29-2.83-6,2.38l-2.38,4.76,2.95,2.83c2.38,2.38,3.06,2.61,4.53,1.36a4.68,4.68,0,0,0,1.81-2.94c0-2.16,2.16-2,4.65.22s3.85,1.48,6.23-3.17c1.7-3.28,1.7-3.62-.34-6.34C661.6,423.84,660,423.73,658.42,427.7Z"/><path class="cls-1" d="M489.62,461.8c-6.57,5.21-4.87,11.21,4.31,15.29,3.4,1.47,6.57,3.63,7,4.65,1.81,4.75-6.68,8.83-11.67,5.66-3.51-2.38-4.08-2.27-3.62.68.22,2.15,1.13,2.72,4.76,2.95,6.91.56,9.4-.57,11.55-5,1.81-3.62,1.81-4.53.34-7-1.7-3.06-2.83-3.86-9.17-6.35-3.29-1.36-4.31-2.26-4.31-4.42,0-4.07,2.61-5.77,7.93-4.87s6.23-1,1.59-2.72C494.27,459.08,492.91,459.19,489.62,461.8Z"/><path class="cls-1" d="M511.49,460.32c-3.51,1.36-5.67,4.2-5.67,7.37,0,5.1,1.82,7.47,6.8,8.95,2.49.79,5.33,2.26,6.35,3.51,4.64,5-4.31,11.22-10.31,7.25-3.63-2.38-4.2-2.27-3.74.68.34,2.27,1.13,2.61,6.23,2.95s6.34-.12,8.83-2.5c1.59-1.58,2.84-4.08,2.84-5.55,0-3.74-3.74-8.27-7.59-9.29-9-2.15-9.63-10.76-.91-10.76,1.93,0,4.08.57,4.76,1.25s1.47.79,1.92.11C522.36,462,515.11,459,511.49,460.32Z"/><path class="cls-1" d="M568.81,460.66c-13,4.08-14.73,23.79-2.38,29,5,2,15.3,2,18.24,0,2.72-2,1.48-3.52-1.58-1.93s-11.56,1.47-14.73-.34c-4.19-2.27-7-7.48-7-12.91,0-7.14,4.53-11.56,11.89-11.56a21.48,21.48,0,0,1,7.59,1.25c2.83,1.47,4.19.34,1.93-1.82C580.71,460.32,573,459.3,568.81,460.66Z"/><path class="cls-1" d="M469,462.36a34.29,34.29,0,0,1-1.69,4.08c-.57,1-2.61,6.12-4.65,11.33A115.66,115.66,0,0,1,458,488.65c-1.14,1.36,1,3.4,2.26,2a36.39,36.39,0,0,0,2.49-6.58c1.48-5,2.27-5.89,4.87-6.23,3.18-.34,4.31-2.49,1.36-2.49-1.92,0-2.26-3.06-.56-5.66,1-1.48,1.24-1.48,2.26,0a8,8,0,0,1,1.14,3.4c0,.9,1.24,4.19,2.83,7.36s2.83,6.57,2.83,7.59c0,2.38,1.81,3.63,4.19,2.72,1.14-.45,1.36-1.13.68-2.15C481,487.06,473,467,473,465.54a8.25,8.25,0,0,0-1.59-3.29C469.8,460.1,469.68,460.1,469,462.36Z"/><path class="cls-1" d="M529.39,465.2c-2.38,2.6-4.42,5.77-4.53,7.13-.8,12.92,5.09,19.72,16.42,18.58a14.33,14.33,0,0,0,13.26-11.67c1.58-6.57.34-11.33-4.08-15.18-3.4-2.94-4.87-3.4-10.31-3.4C534.15,460.66,533.47,461,529.39,465.2Zm16.08-.57c9.75,5.1,8.73,19.82-1.58,23.22-7.82,2.5-16.54-4.64-16.54-13.48,0-2.72,1-4.76,3.85-7.59C535.51,462.48,539.92,461.8,545.47,464.63Z"/><path class="cls-1" d="M590.56,475.5c-.22,11.11,0,15.07,1.14,15.41,3.74,1.47,4.19-.34,3.85-15.41-.34-13.7-.57-14.84-2.49-14.84S590.9,461.8,590.56,475.5Z"/><path class="cls-1" d="M623.08,461.8c-.45.68,1.36,1.13,4.42,1.13h5.21V477.2c0,13.83.11,14.17,2.38,13.83s2.38-1,2.49-13.94l.23-13.59,4-.34a12.47,12.47,0,0,0,5.1-1.48c.57-.56-3.63-1-11-1C629,460.66,623.42,461.12,623.08,461.8Z"/><path class="cls-1" d="M650.83,460.89c0,.23-.11,7.14-.34,15.41-.22,14.27-.11,14.95,2,14.95s2.27-.79,2.27-15.29c0-13.82-.23-15.3-1.93-15.3A5,5,0,0,0,650.83,460.89Z"/><path class="cls-1" d="M664.54,464.74c-10.76,9.63-4.87,26.51,9.29,26.51,9.52,0,15.52-6.46,15.52-16.88,0-5.32-.45-6.46-3.85-9.85s-4.53-3.86-10.2-3.86S668.51,461.12,664.54,464.74Zm19,3.4c3.4,3.63,3.74,4.65,3.18,9.18-.68,5.78-3,8.83-8.39,10.65-7.7,2.49-16.2-4.31-16.2-13,0-8.16,4.76-12.35,13-11.44C678.59,463.84,680.63,465,683.57,468.14Z"/><path class="cls-1" d="M694,462c.11,2.84,1.81,6,3.17,6,.79,0,6.12,5.1,11.9,11.33l10.64,11.33.8-8.5c1-11.22.34-20.62-1.36-21.3-1.14-.34-1.47,2.27-1.47,10.42,0,6-.34,10.88-.8,10.77s-5.21-4.88-10.53-10.77C697.28,461.34,693.77,458.74,694,462Z"/><path class="cls-1" d="M743.28,463c-4.19,3.29-6.35,8-6.35,14,0,4.31.68,5.89,3.86,9.4,3.62,4,4.3,4.2,10.76,4.2,6,0,7.14-.46,10.31-3.4,7.14-6.8,7.36-17.11.45-23.11-3.28-2.95-4.87-3.52-10-3.52C747.92,460.66,745.54,461.34,743.28,463Zm15,2.16c4.19,2.6,7.48,9.17,6.57,13.14s-6,9.17-9.74,10a13.31,13.31,0,0,1-13.37-6.46c-3.74-5.78-3.28-10.42,1.36-15.07S752.45,461.68,758.23,465.2Z"/><path class="cls-1" d="M772.05,460.89c0,.23-.11,7.14-.34,15.41-.22,14.27-.11,14.95,2,14.95s2.27-.79,2.27-13.82V463.5l5.89-.12c9.06-.22,7.7-2.15-1.59-2.49C775.79,460.66,772.05,460.66,772.05,460.89Z"/><path class="cls-1" d="M610.5,463.72a40.15,40.15,0,0,1-2.15,4.87c-2.72,5.1-8.72,21.64-8.16,22.32,1,.91,3.06-.79,3.06-2.49,0-.91,1.25-4.31,2.72-7.59a57.21,57.21,0,0,0,3.4-9.18c1.13-4.87,3.29-3.4,4.76,3.18.9,4,7.59,16.42,8.72,16.42,2.49,0,3.17-1.36,1.47-3.28-.79-1-3.73-7.25-6.34-14.05C613.22,461.91,611.75,459.87,610.5,463.72Z"/><path class="cls-1" d="M694.79,480.6c-.34,9.18.23,11.56,2.27,10.31,1.13-.79.34-20.05-.91-20.05C695.58,470.86,695,475.28,694.79,480.6Z"/><path class="cls-1" d="M777.72,475.39c0,.57,1.81,1.13,4,1.13s4-.56,4-1.13-1.81-1.13-4-1.13S777.72,474.71,777.72,475.39Z"/><path class="cls-1" d="M459.37,503.83c0,.45.8,1,1.7,1.47,1.48.45,1.7,4.53,1.7,26.17s-.22,25.72-1.7,26.17c-3.39,1.36-1.58,2.27,4.54,2.27q8.83,0,5.09-2.38c-.68-.46-1.13-10.43-1.13-26.06s.45-25.6,1.13-26.06q3.75-2.21-5.09-2.38C462.21,503,459.37,503.37,459.37,503.83Z"/><path class="cls-1" d="M480.9,503.83a2.5,2.5,0,0,0,1.13,1.58c.68.46,1.14,10.43,1.14,26.06s-.46,25.6-1.14,26.06c-2.49,1.58-.9,2.38,4.53,2.38,5.78,0,6.58-.46,4.54-2.5-.8-.79-1.14-5.77-.91-12.46l.34-11.21,4.64-.34c4.42-.34,4.65-.12,8.39,5.66,6.91,10.76,12.8,18,16,19.71,3.74,1.82,11.56,2.16,14.73.46,3.62-2,2.38-3.18-2.72-2.61-4.3.57-5.44.11-8.95-3-2.27-1.92-6.91-7.7-10.42-12.8l-6.35-9.29,3.29-3.4c4.42-4.75,5.78-7.7,5.78-12.57,0-9.52-4.76-12.24-21.75-12.46C486.34,503,480.9,503.37,480.9,503.83Zm24.36,5.55c6.57,6.91,4.08,19.37-4.31,21a26.15,26.15,0,0,1-7.14.34l-3.28-.34-.34-11.22c-.11-6.23-.11-11.78.11-12.46s2.84-1.13,6.23-.91C501,506.09,502.88,506.89,505.26,509.38Z"/><path class="cls-1" d="M562.81,504.51c-2.95,9-20.17,51.09-21.41,52.56-2.27,2.5-1.93,3.29,1.24,3.29,2,0,2.83-.57,2.83-2,0-1.13,1.93-6.91,4.31-12.8l4.3-10.65H571l4.19,9.63c2.38,5.32,4.08,10.87,4,12.35-.22,2.49.23,2.83,5.21,2.94,5.55.34,6.46-.45,3.74-2.72-.9-.79-5.32-10.65-9.85-22-9.75-24.36-13.26-32.52-14.05-32.52C563.83,502.58,563.26,503.49,562.81,504.51Zm3.28,17.33c3.4,9.52,3.4,9.63-2.94,10-3.06.23-5.89,0-6.46-.57-1.13-1.13,4.76-16.31,6.12-15.86C563.37,515.5,564.85,518.44,566.09,521.84Z"/><path class="cls-1" d="M593.06,503.6a1.39,1.39,0,0,0,1.47,1.25,5.77,5.77,0,0,1,3.4,2c1.7,1.81,1.92,5.32,1.92,26.05,0,14.73-.45,24.13-1.13,24.59-2.38,1.47-1,2.83,2.83,2.83s4.87-.91,3-3c-1.13-1-2-41.91-1-42.93.23-.34,9.86,9.51,21.3,21.86S646,558.77,646.53,559s.91-11.67.91-26.28c0-22.78.22-26.85,1.69-27.42,3.18-1.25,1.7-2.72-2.83-2.72-4.76,0-5.66,1-2.83,3.4,1.36,1.13,1.7,4.87,1.7,20.51,0,10.42-.45,19.25-1,19.59s-8.61-7.7-18-17.78-18.47-19.71-20.28-21.3C602.46,503.83,593.06,501.33,593.06,503.6Z"/><path class="cls-1" d="M658.76,503.94a2.3,2.3,0,0,0,1.14,1.47c.68.46,1.13,10.43,1.13,26.17,0,21.53-.23,25.61-1.7,26.06-3.51,1.36-1.47,2.38,5.1,2.38s8.61-1,5.1-2.38c-1.48-.45-1.7-4.53-1.7-26.17s.22-25.72,1.7-26.17c3.4-1.36,1.58-2.27-4.53-2.27C661.6,503.15,658.76,503.49,658.76,503.94Z"/><path class="cls-1" d="M699,506.66c-1,2.49-5.89,14.61-10.87,27.08s-9.75,23.22-10.65,23.9c-2.61,1.93-2,3,1.36,2.49,2.15-.22,3.28-1.13,3.51-2.6.45-3.06,7.14-20.06,8.5-21.87.79-1,3.62-1.36,9.06-1.13l7.82.34,2.26,5.55c1.13,3.06,3.17,7.7,4.42,10.54s2,5.77,1.93,6.68c-.23,1.36.9,1.81,5.09,2.15,5.89.34,6.23,0,3.18-3.28-1.25-1.36-6.69-13.6-12.13-27.31s-10.31-25.37-10.76-25.94S700,504.28,699,506.66ZM703.06,523c1.59,4.31,2.72,8.16,2.38,8.5-1.13,1-12.69.57-12.69-.57a50.21,50.21,0,0,1,2.38-7.59c1.25-3.62,2.61-7.25,2.83-8.15C698.76,512.78,699.66,514.25,703.06,523Z"/><path class="cls-1" d="M730.14,503.49c0,.56,1,1.36,2.26,1.7,3.74,1,4.53,5.77,4.53,29.23,0,19-.22,22.77-1.7,23.22-3.05,1.25-1.81,2.72,2.27,2.72,3.85,0,5.21-1.36,2.83-2.83-1.36-.8-1.58-44-.22-43.39.45.11,10.19,10.31,21.52,22.43s21.19,22.2,21.75,22.43,1-11.56,1-26.06c.12-15.29.68-26.85,1.25-27.41,2-2,1.13-2.95-2.83-2.95s-4.87.91-2.84,2.95c1.25,1.24,1.7,41.35.34,41-.45-.23-7.25-7.14-15.06-15.52-26.63-28.55-25-27.08-30.25-27.87C732.06,502.69,730.14,502.81,730.14,503.49Z"/><path class="cls-1" d="M765.82,572.59a14.78,14.78,0,0,0-5.89,21.87c1.93,2.94,4.65,4.64,11.56,7.36,12.8,5.1,16.88,10.77,12.35,17.34-3.86,5.32-15.3,7.47-21.87,4.07-3.4-1.69-4.64-3.73-4.64-7.47,0-1.14-.57-2.16-1.14-2.16-.79,0-1.13,2.5-.9,6.46l.34,6.57,10.42.34c12.57.34,17.45-1.24,20.28-6.79,2.49-4.76,2.49-12.35,0-16.2-2.38-3.63-7.48-6.8-14.84-9.18-7.82-2.61-10.76-5.55-10.76-10.76,0-9.07,12.68-13.6,20.16-7.25,4.31,3.62,6.34,1.58,2.38-2.27S771.6,569.88,765.82,572.59Z"/><path class="cls-1" d="M481,574.07c-1.81,4.19-17,41.91-18.46,45.77a16.85,16.85,0,0,1-2.27,4.41c-1.58,1.82-1,3,1.36,3a2.19,2.19,0,0,0,2.38-2c0-1,1.93-6.46,4.19-12.12l4.19-10.2h16.66l3.74,9.07c2.15,5,3.85,10.42,4,12.12,0,2.94.34,3.17,4.53,3.17,5.1,0,5.21-.11,2.83-4.31-1.47-2.83-3.85-8.61-15.52-38.17C483.28,571.46,482.6,570.44,481,574.07Zm3.52,17.33c1.58,4.08,2.6,7.59,2.26,7.93-1,1.13-11.33.79-12-.34-.34-.57.34-3.17,1.48-5.89s2.37-5.89,2.71-7C480.22,582.68,481.58,583.92,484.53,591.4Z"/><path class="cls-1" d="M513.75,572.59a4.32,4.32,0,0,0,1.25,2.16c.68.68,1,9.85.79,26.85l-.34,25.6h3.63c3.4,0,5.55-1.25,4.19-2.49s-.68-50.08.57-50.53c3.17-1,.68-2.49-4.42-2.49C516.36,571.69,513.75,572.14,513.75,572.59Z"/><path class="cls-1" d="M533,572.71c0,.56.8,1.24,1.7,1.7,1.48.45,1.7,4.3,1.7,24.92,0,14.95-.45,24.58-1.13,25-2.38,1.47-.91,2.83,3.17,2.83,5,0,6.35-.91,4.76-3-.68-.79-1.13-5.89-.91-11.89l.34-10.65,4.65-.34,4.64-.34,5.89,9.06a108.73,108.73,0,0,0,9.86,13c3.62,3.74,4.53,4.08,10.08,4.08,6.69,0,12.35-1.7,11.44-3.29-.45-.56-2-.56-3.85.12a11.82,11.82,0,0,1-6.23.45c-3.4-.79-13.82-12.69-17.9-20.5l-2.72-5,3.86-4c2.94-3.06,4-5.1,4.3-9.41.68-6.68-2.15-11-8.5-12.8C553.07,571.46,533,571.35,533,572.71Zm20.85,2.38c4,1.47,7.48,7.59,7.48,12.8,0,3.28-.8,5.21-3.4,7.7-3,3.06-4,3.4-9.29,3.06l-6-.34-.34-10.65c-.11-5.89-.11-11.33.23-12.23C543.21,573.73,549.67,573.5,553.86,575.09Z"/><path class="cls-1" d="M591.92,572.59a4.32,4.32,0,0,0,1.25,2.16c.68.68,1,9.85.79,26.85l-.34,25.71,17.56-.34,17.56-.34.34-6c.34-6.57-1.36-8-2.49-1.93-1,5.1-3.29,6.23-13,6.23-12.69,0-12.57.34-12.57-27.07,0-13.94.45-22.89,1.13-23.34,2.61-1.59.79-2.83-4.53-2.83C594.53,571.69,591.92,572.14,591.92,572.59Z"/><path class="cls-1" d="M635,572.59a4.32,4.32,0,0,0,1.25,2.16c.68.68,1,9.85.79,26.85l-.34,25.6h7.93l-.34-25.6c-.22-17,.12-26.17.8-26.85,2.26-2.27,1.24-3.06-4.42-3.06C637.58,571.69,635,572.14,635,572.59Z"/><path class="cls-1" d="M654.23,572.14a10.17,10.17,0,0,0,2.38,3.06c2.15,2.15,2.27,3.29,1.93,27.19l-.34,24.81h2.72c1.81,0,2.38-.45,2-1.59-1.14-2.72-1.14-42.59-.12-42.25.57.11,9.86,9.63,20.62,21.18s20,21.07,20.73,21.3,1-9.63,1-25.15c0-21.75.23-25.83,1.7-26.28,3.06-1.25,1.82-2.72-2.26-2.72-3.86,0-5.21,1.36-2.84,2.83,1.36.79,1.59,40.56.23,40-.45-.23-9.74-9.74-20.62-21.3-17-18-20.28-21-23.45-21.3C655.93,571.69,654.23,571.8,654.23,572.14Z"/><path class="cls-1" d="M716.54,572.59a4.32,4.32,0,0,0,1.25,2.16c.68.68,1,9.85.79,26.85l-.34,25.71,17-.34c16.66-.34,17-.34,17.34-2.83.45-2.94-1.47-3.51-2.49-.91-.8,2.27-21.3,2.5-23.12.23-.79-1-1.24-10-1.24-25.49V574H735.8c9,0,10.31.23,11.56,2.27,2,3.17,3.4,2.83,2.94-.91l-.34-3.06-16.65-.34C724,571.8,716.54,572,716.54,572.59Z"/><path class="cls-1" d="M738.29,597.74c-6.57.8-9.17,1.59-8,2.72.23.34,4.08.68,8.38.8,6.46.22,8,0,8.27-1.48C747.36,597.18,746.34,597,738.29,597.74Z"/></svg>